<?xml version="1.0" encoding="UTF-8" standalone="no"?>
<!DOCTYPE svg PUBLIC "-//W3C//DTD SVG 1.1//EN" "http://www.w3.org/Graphics/SVG/1.1/DTD/svg11.dtd">
<svg version="1.1" xmlns="http://www.w3.org/2000/svg" xmlns:xlink="http://www.w3.org/1999/xlink" preserveAspectRatio="xMidYMid meet" viewBox="18.999999999999886 176.25362318840592 604.0000000000003 340.95652173913055" width="600" height="336.96"><defs><path d="M610 177.25C615.52 177.25 620 181.73 620 187.25C620 252.64 620 438.82 620 504.21C620 509.73 615.52 514.21 610 514.21C492 514.21 148 514.21 30 514.21C24.48 514.21 20 509.73 20 504.21C20 438.82 20 252.64 20 187.25C20 181.73 24.48 177.25 30 177.25C148 177.25 492 177.25 610 177.25Z" id="ciNZMOILq"></path><path d="M242.61 324.72C248.13 324.72 252.61 329.19 252.61 334.72C252.61 341.12 252.61 350.34 252.61 356.75C252.61 362.27 248.13 366.75 242.61 366.75C201.86 366.75 89.59 366.75 48.84 366.75C43.32 366.75 38.84 362.27 38.84 356.75C38.84 350.34 38.84 341.12 38.84 334.72C38.84 329.19 43.32 324.72 48.84 324.72C89.59 324.72 201.86 324.72 242.61 324.72Z" id="a1oocYZmyu"></path><path d="M401.3 264.5C406.83 264.5 411.3 268.98 411.3 274.5C411.3 280.91 411.3 290.12 411.3 296.53C411.3 302.05 406.83 306.53 401.3 306.53C328.81 306.53 121.33 306.53 48.84 306.53C43.32 306.53 38.84 302.05 38.84 296.53C38.84 290.12 38.84 280.91 38.84 274.5C38.84 268.98 43.32 264.5 48.84 264.5C121.33 264.5 328.81 264.5 401.3 264.5Z" id="b4zrO7SGG"></path><path d="M279.57 386.95C285.09 386.95 289.57 391.43 289.57 396.95C289.57 403.36 289.57 412.57 289.57 418.98C289.57 424.5 285.09 428.98 279.57 428.98C231.42 428.98 96.99 428.98 48.84 428.98C43.32 428.98 38.84 424.5 38.84 418.98C38.84 412.57 38.84 403.36 38.84 396.95C38.84 391.43 43.32 386.95 48.84 386.95C96.99 386.95 231.42 386.95 279.57 386.95Z" id="bpMGHc3Ci"></path><path d="M351.3 448.6C356.83 448.6 361.3 453.08 361.3 458.6C361.3 465.01 361.3 474.22 361.3 480.63C361.3 486.15 356.83 490.63 351.3 490.63C288.81 490.63 111.33 490.63 48.84 490.63C43.32 490.63 38.84 486.15 38.84 480.63C38.84 474.22 38.84 465.01 38.84 458.6C38.84 453.08 43.32 448.6 48.84 448.6C111.33 448.6 288.81 448.6 351.3 448.6Z" id="a19pLAmkr"></path><path d="M202.94 201.54C207.96 201.54 212.03 205.61 212.03 210.63C212.03 217.22 212.03 227.9 212.03 234.49C212.03 239.5 207.96 243.57 202.94 243.57C170.12 243.57 80.75 243.57 47.93 243.57C42.91 243.57 38.84 239.5 38.84 234.49C38.84 227.9 38.84 217.22 38.84 210.63C38.84 205.61 42.91 201.54 47.93 201.54C80.75 201.54 170.12 201.54 202.94 201.54Z" id="b5B9cSF6Gx"></path><path d="M300.76 201.54C305.7 201.54 309.71 205.55 309.71 210.49C309.71 217.11 309.71 228.01 309.71 234.62C309.71 239.57 305.7 243.57 300.76 243.57C286.32 243.57 251.94 243.57 237.5 243.57C232.56 243.57 228.55 239.57 228.55 234.62C228.55 228.01 228.55 217.11 228.55 210.49C228.55 205.55 232.56 201.54 237.5 201.54C251.94 201.54 286.32 201.54 300.76 201.54Z" id="cfD9TlFlW"></path></defs><g><g><use xlink:href="#ciNZMOILq" opacity="1" fill="#3d515f" fill-opacity="1"></use></g><g><use xlink:href="#a1oocYZmyu" opacity="1" fill="#11c959" fill-opacity="1"></use></g><g><use xlink:href="#b4zrO7SGG" opacity="1" fill="#efe541" fill-opacity="1"></use></g><g><use xlink:href="#bpMGHc3Ci" opacity="1" fill="#f8f8f8" fill-opacity="1"></use></g><g><use xlink:href="#a19pLAmkr" opacity="1" fill="#3888ec" fill-opacity="1"></use></g><g><use xlink:href="#b5B9cSF6Gx" opacity="1" fill="#11c959" fill-opacity="1"></use></g><g><use xlink:href="#cfD9TlFlW" opacity="1" fill="#f051a7" fill-opacity="1"></use></g></g></svg>